<?xml version="1.0" encoding="utf-8"?>
<!-- Generator: Adobe Illustrator 24.1.2, SVG Export Plug-In . SVG Version: 6.00 Build 0)  -->
<svg version="1.1" id="Layer_1" xmlns="http://www.w3.org/2000/svg" xmlns:xlink="http://www.w3.org/1999/xlink" x="0px" y="0px"
	 viewBox="0 0 1200 300" style="enable-background:new 0 0 1200 300;" xml:space="preserve">
<style type="text/css">
	.st0{fill:url(#SVGID_1_);}
	.st1{fill:url(#SVGID_2_);}
	.st2{fill:#FFFFFF;}
</style>
<linearGradient id="SVGID_1_" gradientUnits="userSpaceOnUse" x1="495.3913" y1="380.1107" x2="947.7446" y2="-72.2426">
	<stop  offset="0" style="stop-color:#3BC49D"/>
	<stop  offset="1" style="stop-color:#FBB03B"/>
</linearGradient>
<path class="st0" d="M310.2,87.3h35.5c24.6,0,35.1,15.1,35.1,32.5s-10.6,32.5-35.1,32.5h-21.2v42.7h-14.3V87.3z M345.7,140.2
	c16.1,0,21-10.6,21-20.4c0-9.9-4.8-20.4-21-20.4h-21.2v40.9H345.7z M468.1,197c-23.8,0-42-17.2-42-41.1c0-23.7,18.1-40.9,42-40.9
	c23.7,0,41.6,17.2,41.6,40.9C509.7,179.8,491.8,197,468.1,197z M468.1,125.7c-16.7,0-28.5,12.6-28.5,30.3s11.8,30.5,28.5,30.5
	c16.3,0,28.2-12.7,28.2-30.5S484.5,125.7,468.1,125.7z M562.6,194.9v-77.6h13.1v67.1h35.7v10.6H562.6z M660.9,194.9v-77.6h49v10.6
	H674v20.8h29.4v10.6H674v25.1h35.9v10.6H660.9z M760.2,184.1l3.2-13.3c6.5,7,17.2,14.7,32.6,14.7c12.7,0,22.6-7.2,22.6-18.8
	c0-10.9-5.4-17-25.5-22.4c-20.3-5.4-29.9-16.3-29.9-31.4c0-15.2,12.6-28,34.6-28c12.4,0,23.3,4.7,29.2,9.5l-3.2,11.7
	c-7.2-5.2-17.2-9.5-26-9.5c-13.4,0-21.2,6.3-21.2,16.3c0,7.7,4.8,14.2,21.7,18.6c23.1,6.1,33.7,16.1,33.7,33.9
	c0,21-17.6,31.7-36,31.7C778.5,197.2,766.1,190.2,760.2,184.1z M913.7,127.8v67.1h-13.1v-67.1h-26.9v-10.6h66.9v10.6H913.7z
	 M1033.7,194.9l-8.6-20.4h-32.8l-8.4,20.4h-12.9l33.2-77.6h9.7l33.2,77.6H1033.7z M1008.7,134.8l-12.6,29.9h25.1L1008.7,134.8z
	 M1150.8,195.8c-9,0-16.3-4.1-21.9-14.9l-9.3-17.4h-10.2v31.4h-13.1v-77.6h28.2c18.1,0,25.8,10.6,25.8,23.1
	c0,11.3-6.3,19.9-17.9,22.1l8.6,14.5c4.3,7.4,8.1,9.5,13.6,9.5c1.6,0,2.9,0,4.5-0.4v8.4C1156.3,195.4,1153.4,195.8,1150.8,195.8z
	 M1109.3,153.5h13.8c10.8,0,14.2-5.9,14.2-13.1c0-7-3.4-13.1-14.2-13.1h-13.8V153.5z"/>
<path d="M973.2,222.2h8.6c10.8,0,15.5,6.3,15.5,13.9s-4.7,13.9-15.5,13.9h-8.6V222.2z M981.9,246.8c9.1,0,11.6-5.1,11.6-10.7
	c0-5.6-2.6-10.7-11.6-10.7h-5v21.4H981.9z M1011.2,250v-20.1h12.7v2.7h-9.3v5.4h7.6v2.7h-7.6v6.5h9.3v2.7H1011.2z M1043.7,250.5
	c-3.3,0-5.7-1.3-6.9-2.5l0.8-2.9c1.3,1.3,3.3,2.7,6.1,2.7c2.2,0,3.9-1.2,3.9-3.2c0-1.8-1-2.8-4.5-3.8c-4-1-5.8-3.2-5.8-6
	c0-3.1,2.5-5.5,6.7-5.5c2.4,0,4.5,0.9,5.8,1.9l-0.7,2.5c-1.4-0.9-3.3-1.8-5-1.8c-2.3,0-3.6,1-3.6,2.7c0,1.3,0.8,2.3,3.8,3.1
	c4.5,1.2,6.5,3.1,6.5,6.5C1050.7,248.5,1047.3,250.5,1043.7,250.5z M1064.4,250v-20.1h3.4V250H1064.4z M1092.2,250.6
	c-5.8,0-10.7-4.1-10.7-10.6c0-6.5,5-10.4,10.9-10.4c2.6,0,5.3,0.8,7,2v3.3c-1.6-1.5-3.8-2.6-6.8-2.6c-4.4,0-7.6,3-7.6,7.8
	c0,4.8,3.2,7.9,7.5,7.9c1.8,0,3.4-0.4,4.5-1v-4.2h-3.9v-2.6h7.1v8.5C1099.1,249.1,1096,250.6,1092.2,250.6z M1129.2,250l-11.2-14.1
	V250h-3.1v-20.1h2.2l11.2,14.1v-14.1h3.1V250H1129.2z M1151.9,250.5c-3.3,0-5.7-1.3-6.9-2.5l0.8-2.9c1.3,1.3,3.3,2.7,6.1,2.7
	c2.2,0,3.9-1.2,3.9-3.2c0-1.8-1-2.8-4.5-3.8c-4-1-5.8-3.2-5.8-6c0-3.1,2.5-5.5,6.7-5.5c2.4,0,4.5,0.9,5.8,1.9l-0.7,2.5
	c-1.4-0.9-3.3-1.8-5-1.8c-2.3,0-3.6,1-3.6,2.7c0,1.3,0.8,2.3,3.8,3.1c4.5,1.2,6.5,3.1,6.5,6.5C1159,248.5,1155.6,250.5,1151.9,250.5
	z"/>
<linearGradient id="SVGID_2_" gradientUnits="userSpaceOnUse" x1="59.6147" y1="242.5343" x2="245.3433" y2="56.8057">
	<stop  offset="0" style="stop-color:#3BC49D"/>
	<stop  offset="1" style="stop-color:#FBB03B"/>
</linearGradient>
<circle class="st1" cx="152.5" cy="149.7" r="131.3"/>
<circle cx="59.5" cy="131.3" r="10.6"/>
<g>
	
		<ellipse transform="matrix(0.7071 -0.7071 0.7071 0.7071 -90.9293 217.0247)" class="st2" cx="216.5" cy="218.3" rx="3.8" ry="3.8"/>
	<path class="st2" d="M220.3,63.7c-9.3,0-16.8,7.6-16.8,16.8s7.6,16.8,16.8,16.8c9.3,0,16.8-7.6,16.8-16.8S229.5,63.7,220.3,63.7z
		 M220.3,95.4c-8.2,0-14.9-6.7-14.9-14.9s6.7-14.9,14.9-14.9c8.2,0,14.9,6.7,14.9,14.9S228.5,95.4,220.3,95.4z"/>
	<path class="st2" d="M216.4,127.6c-3.2,0-6.2,1.1-8.6,2.9l0-0.1L147,89.9c1.4-2.8,2.2-6,2.2-9.4c0-11.6-9.4-21.1-21.1-21.1
		c-11.6,0-21.1,9.4-21.1,21.1s9.4,21.1,21.1,21.1c0.3,0,0.7,0,1,0l-0.3,69.7l-27.9,9.5l0.1,0.3c-1.9-4-6-6.7-10.7-6.7
		c-6.6,0-11.9,5.4-11.9,11.9s5.4,11.9,11.9,11.9c6.6,0,11.9-5.4,11.9-11.9c0-0.8-0.1-1.6-0.2-2.4l0.2,0.7l26.6-9.1l-0.2,46.9
		c-4.5,1.2-7.8,5.3-7.8,10.2c0,4.8,3.3,8.9,7.7,10.2l-0.2,35.9l1.9,0.3c0.8,0.1,1.5,0.3,2.3,0.4l-0.1-36.3c5.3-0.5,9.5-5,9.5-10.5
		c0-5.5-4.2-10-9.5-10.5l-0.1-47.8l50.3-17.2l22.2-7.1c2.6,3.6,6.8,5.9,11.5,5.9c7.8,0,14.2-6.4,14.2-14.2
		C230.6,134,224.2,127.6,216.4,127.6z M90.3,196c-5.3,0-9.6-4.3-9.6-9.6s4.3-9.6,9.6-9.6c5.3,0,9.6,4.3,9.6,9.6S95.6,196,90.3,196z
		 M132.3,129.6l0.1-28.4c3.7-0.8,7.1-2.5,9.9-5l60.9,40.6c-0.6,1.6-0.9,3.3-0.9,5.1c0,1.5,0.2,2.9,0.6,4.2l-0.6,0.2l0,0l-69.9,23.9
		L132.3,129.6z M216.4,154c-6.7,0-12.2-5.5-12.2-12.2c0-6.7,5.5-12.2,12.2-12.2c6.7,0,12.2,5.5,12.2,12.2
		C228.6,148.6,223.1,154,216.4,154z"/>
</g>
</svg>
